<?xml version="1.0" encoding="utf-8"?>
<!-- Generator: Adobe Illustrator 18.0.0, SVG Export Plug-In . SVG Version: 6.00 Build 0)  -->
<!DOCTYPE svg PUBLIC "-//W3C//DTD SVG 1.1//EN" "http://www.w3.org/Graphics/SVG/1.1/DTD/svg11.dtd">
<svg version="1.1" id="svg2" xmlns:svg="http://www.w3.org/2000/svg"
	 xmlns="http://www.w3.org/2000/svg" xmlns:xlink="http://www.w3.org/1999/xlink" x="0px" y="0px" viewBox="0 0 645 585"
	 enable-background="new 0 0 645 585" xml:space="preserve">
<g id="layer1">
	<path id="path2417" fill="#F44336" d="M297.3,550.9c-13.8-15.4-48.2-45.5-76.4-66.9c-83.7-63.2-95.1-72.4-129.1-103.7
		C29,322.6,2.4,264.6,2.5,186c0-38.4,2.7-53.2,13.4-75.8C34.2,71.8,61,43.2,95.4,25.8C119.7,13.4,131.7,8,172.3,7.7
		c42.5-0.2,51.4,4.7,76.4,18.5c30.4,16.7,61.7,52.4,68.2,77.8l4,15.7l9.9-21.6c55.7-122,233.6-120.1,295.5,3
		c19.6,39.1,21.8,122.5,4.4,169.5c-22.7,61.3-65.4,108.1-164,179.7c-64.7,47-137.9,118-143,128C317.8,589.9,323.4,580.1,297.3,550.9
		z"/>
	<g id="g2221" transform="translate(129.28571,-64.285714)" display="none">
	</g>
</g>
</svg>
