<svg xmlns="http://www.w3.org/2000/svg" version="1.1" x="0px" y="0px" viewBox="0 0 500 500" enable-background="new 0 0 500 500" xml:space="preserve"><g id="Layer_1"><rect x="-0.5" y="-0.2" fill="#F0592B" width="499.9" height="501.2"/></g><g id="Layer_2"><path fill="#FFFFFF" d="M152.4 414.1c-6.1 0-11.8-2.7-17.1-8 -5.3-5.3-9.9-12.5-13.8-21.4 -3.9-9-7-19.4-9.2-31.2 -2.2-11.8-3.3-24.2-3.3-37.3 0-11.2 1.6-26.1 4.9-44.8 3.3-18.7 4.9-28 4.9-28 0 0 2.5-9.3 7.5-28 5-18.6 10-33.6 15-44.9 5-11.3 10.4-21.8 16.3-31.6 5.9-9.8 12-18.3 18.5-25.6 6.4-7.3 13.2-13 20.2-17.1s14.2-6.2 21.4-6.2c5.3 0 9.6 1 13.1 3 3.4 2 6.1 4.7 8.1 8 2 3.3 3.3 7 4.1 11.2 0.8 4.2 1.2 8.4 1.2 12.8 0 10.8-1.3 21.7-3.8 32.9 -2.5 11.2-6 22.4-10.3 33.7 -4.3 11.3-9.3 22.6-15 33.9 -5.7 11.3-11.6 22.6-17.8 33.8 -6.2 11.2-12.3 22.2-18.6 33s-12 21.4-17.2 31.8c-0.6 1.1-1.2 2.6-1.8 4.5 -0.6 1.8-1.2 3.8-1.8 5.9 -0.6 2.1-1.1 4.4-1.7 6.8 -0.6 2.4-1 4.8-1.4 7.1v2.4c0 3 0.3 5.9 0.9 8.7 0.6 2.8 1.4 5.3 2.3 7.6 0.9 2.2 1.9 4 2.9 5.3 1 1.3 2 2 2.9 2 2.2 0 4.8-0.5 7.6-1.4 2.9-0.9 5.9-2.2 9.1-3.7 3.2-1.5 6.5-3.3 9.9-5.3s6.7-4.1 9.8-6.1c7.3-4.8 15-10.4 23.1-16.7l15.1 36c-10.4 6.9-20.8 13.1-31 18.5 -4.5 2.3-9.1 4.5-13.8 6.7 -4.8 2.2-9.5 4.2-14.3 5.9 -4.8 1.7-9.5 3.1-14.1 4.1C160.6 413.5 156.4 414.1 152.4 414.1zM152.5 278.6c5.1-9.2 10.6-19.5 16.4-31 5.8-11.5 11.2-23.3 16.4-35.5s9.6-24.3 13.4-36.5c3.8-12.1 6.2-23.4 7.2-33.9 0-3.3-0.1-6.2-0.2-8.5 -0.2-2.4-0.7-3.5-1.5-3.5 -3.1 0-6.5 2.2-10.1 6.5 -3.6 4.3-7.2 10.2-10.8 17.6 -3.6 7.4-7.9 19.4-13 36 -5 16.6-7.5 25-7.5 25 0 0-1.5 7.7-4.6 23.2C154.9 253.4 153.1 266.9 152.5 278.6zM279.2 276c6.4-7.8 12.2-14.1 17.5-18.9 5.3-4.8 10.6-7.1 15.8-7.1 6.7 0 12.7 1.5 17.9 4.4 5.2 2.9 9.7 6.8 13.3 11.7 3.6 4.8 6.4 10.4 8.4 16.7 1.9 6.3 2.9 12.9 2.9 19.8 0 5.9-0.2 11.4-0.7 16.6 -0.5 5.2-1.3 10.3-2.5 15.3 -1.2 5-2.8 10-5 14.9 -2.1 4.9-4.9 10-8.3 15.3 4.1-2.4 8.3-4.8 12.5-7.1 4.2-2.3 8.5-4.8 12.7-7.6 4.3-2.8 8.6-5.8 12.9-9.2 4.3-3.4 8.8-7.4 13.3-12l13.2 28.4c-6.3 5.7-12.5 10.7-18.7 14.9 -6.2 4.2-12.6 7.9-19.1 11.1 -6.6 3.1-13.4 5.9-20.5 8.2 -7.1 2.3-14.7 4.3-22.6 6.2 -1.9 1.9-4.6 3.9-8 5.8 -3.4 1.9-6.7 3.7-10 5.3 -3.8 1.8-7.8 3.6-12.2 5.3h-4.3c-17.8 0-27.4-0.2-28.9-0.7 -13.7-3.8-22.3-6.7-25.8-8.9 -6.5-4.2-12.8-8.5-18.8-13 0.3-9.2 1-19.7 2.1-31.3 0.8-10.1 2-22.5 3.6-37.1 2.3-21.5 4.5-37.3 6.6-47.3 1-11.3 2.4-23.7 4.2-37.4 1.9-10.5 4.2-23.5 6.9-39.2 2.8-15.7 6.5-30.2 11.1-43.4 4.6-13.3 9.7-25.1 15.4-35.5 5.6-10.4 11.8-18.7 18.5-25 6.7-6.3 13.9-9.4 21.6-9.4 8.7 0 15.6 1.5 20.8 4.4 5.2 3 9.3 7 12.1 12 2.8 5.1 4.7 11 5.6 17.9 0.9 6.8 1.4 14.1 1.4 21.9 0 10.8-2 21.9-6.1 33.4 -4 11.5-9.3 22.9-15.8 34.3 -6.5 11.4-13.8 22.6-21.8 33.5 -8 10.9-16 21.2-24 30.8L279.2 276zM294.6 288.3c-4 0-8 0.8-12 2.5 -4 1.7-7.7 4.3-11.1 7.8 -3.4 3.5-6.4 8.1-9.1 13.6 -5.1 10.8-7.1 17.4-5.8 19.8 0 0.2-0.8 7.1-2.4 20.5 -0.6 5.1-1.1 9.6-1.6 13.6 -0.6 4.6-1.1 8.9-1.5 12.9 3.8 1.1 7.5 2.1 11.3 2.9 3.3 0.7 6.8 0.7 10.4 0.2 3.6-0.6 7.1-0.9 10.4-0.9 3.9 0 7.4-1.1 10.6-3.4 3.2-2.3 6-5.4 8.5-9.2 2.5-3.8 4.7-8.2 6.5-13.2 1.8-4.9 3.3-10.1 4.4-15.4 1.1-5.3 2-10.6 2.6-15.8 0.6-5.2 0.9-10 0.9-14.4 0-2.9-0.3-5.6-0.9-8.2 -0.6-2.6-1.8-4.8-3.4-6.8 -1.7-1.9-3.9-3.5-6.8-4.7C302.7 288.9 299 288.3 294.6 288.3zM311.4 132.4c0-0.5-0.1-1.4-0.3-2.9 -0.2-1.5-0.6-3-1.2-4.6 -0.6-1.6-1.5-3-2.6-4.3 -1.1-1.3-2.7-1.9-4.6-1.9 -2.3 0-4.6 1.6-7 4.9 -2.4 3.2-4.8 7.6-7.2 13.2 -2.4 5.5-4.7 11.9-6.9 19.2 -2.3 7.2-4.5 14.8-6.6 22.7 -2.1 7.9-4.1 16-5.8 24.3 -1.7 8.3-3.3 16-4.9 23.3 -1.5 7.3-2.9 14-4.2 20.1 -1.3 6.1-2.3 11-3.1 14.8 3.1-5.9 6.5-12.1 10.3-18.5s7.6-13 11.5-19.9c3.8-6.9 7.6-14 11.3-21.2 3.7-7.2 7-14.6 10-22.2 3-7.6 5.5-15.3 7.5-23.1C309.5 148.5 310.8 140.5 311.4 132.4z"/></g></svg>